<svg width="32" height="32" viewBox="0 0 32 32" xmlns="http://www.w3.org/2000/svg">
  <defs>
    <radialGradient id="globe" cx="0.3" cy="0.3" r="0.7">
      <stop offset="0%" stop-color="#60a5fa"/>
      <stop offset="100%" stop-color="#1e40af"/>
    </radialGradient>
  </defs>
  
  <!-- Background -->
  <rect width="32" height="32" rx="4" fill="#1f2937"/>
  
  <!-- Globe -->
  <circle cx="16" cy="16" r="10" fill="url(#globe)"/>
  
  <!-- Simple continent shapes -->
  <path d="M9 13 C11 11, 15 12, 17 14 C19 12, 23 13, 23 15 L23 17 C21 19, 17 18, 15 16 C13 18, 9 17, 9 15 Z" fill="#22c55e"/>
  <path d="M8 20 C10 18, 14 19, 16 21 C18 19, 22 20, 24 21 L24 23 C22 24, 18 23, 16 22 C14 23, 10 22, 8 21 Z" fill="#16a34a"/>
  
  <!-- Grid lines -->
  <circle cx="16" cy="16" r="10" fill="none" stroke="#60a5fa" stroke-width="0.8" opacity="0.3"/>
  <line x1="6" y1="16" x2="26" y2="16" stroke="#60a5fa" stroke-width="0.6" opacity="0.4"/>
  <line x1="16" y1="6" x2="16" y2="26" stroke="#60a5fa" stroke-width="0.6" opacity="0.4"/>
  
  <!-- Pulse ring -->
  <circle cx="16" cy="16" r="12" fill="none" stroke="#10b981" stroke-width="2" opacity="0.6"/>
  
  <!-- Data points -->
  <circle cx="12" cy="11" r="1.5" fill="#fbbf24"/>
  <circle cx="20" cy="14" r="1.5" fill="#ef4444"/>
  <circle cx="14" cy="21" r="1.5" fill="#10b981"/>
  
  <!-- Central pulse dot -->
  <circle cx="16" cy="16" r="1.5" fill="#10b981"/>
</svg>