<svg width="32" height="32" viewBox="0 0 32 32" xmlns="http://www.w3.org/2000/svg">
  <defs>
    <!-- Gradient for the globe -->
    <radialGradient id="globeGradient" cx="0.3" cy="0.3" r="0.7">
      <stop offset="0%" stop-color="#60a5fa"/>
      <stop offset="70%" stop-color="#3b82f6"/>
      <stop offset="100%" stop-color="#1e40af"/>
    </radialGradient>
    
    <!-- Gradient for the pulse waves -->
    <radialGradient id="pulseGradient" cx="0.5" cy="0.5" r="0.5">
      <stop offset="0%" stop-color="#10b981" stop-opacity="0.8"/>
      <stop offset="50%" stop-color="#059669" stop-opacity="0.4"/>
      <stop offset="100%" stop-color="#047857" stop-opacity="0.1"/>
    </radialGradient>
  </defs>
  
  <!-- Background circle -->
  <circle cx="16" cy="16" r="15" fill="#1f2937" stroke="#374151" stroke-width="1"/>
  
  <!-- Globe base -->
  <circle cx="16" cy="16" r="11" fill="url(#globeGradient)"/>
  
  <!-- Continent shapes -->
  <path d="M8 12 C10 10, 14 11, 16 13 C18 11, 22 12, 24 14 L24 18 C22 20, 18 19, 16 17 C14 19, 10 18, 8 16 Z" fill="#22c55e" opacity="0.8"/>
  <path d="M6 20 C8 18, 12 19, 14 21 C16 19, 20 20, 22 22 L22 24 C20 25, 16 24, 14 23 C12 24, 8 23, 6 22 Z" fill="#22c55e" opacity="0.6"/>
  
  <!-- Latitude/longitude grid -->
  <circle cx="16" cy="16" r="11" fill="none" stroke="#60a5fa" stroke-width="0.5" opacity="0.3"/>
  <ellipse cx="16" cy="16" rx="11" ry="6" fill="none" stroke="#60a5fa" stroke-width="0.5" opacity="0.3"/>
  <ellipse cx="16" cy="16" rx="8" ry="11" fill="none" stroke="#60a5fa" stroke-width="0.5" opacity="0.3"/>
  <line x1="5" y1="16" x2="27" y2="16" stroke="#60a5fa" stroke-width="0.5" opacity="0.3"/>
  
  <!-- Pulse waves around the globe -->
  <circle cx="16" cy="16" r="12.5" fill="none" stroke="url(#pulseGradient)" stroke-width="1" opacity="0.6">
    <animate attributeName="r" values="11;14;11" dur="2s" repeatCount="indefinite"/>
    <animate attributeName="opacity" values="0.6;0.1;0.6" dur="2s" repeatCount="indefinite"/>
  </circle>
  
  <circle cx="16" cy="16" r="13.5" fill="none" stroke="url(#pulseGradient)" stroke-width="0.8" opacity="0.4">
    <animate attributeName="r" values="12;15;12" dur="2.5s" repeatCount="indefinite" begin="0.3s"/>
    <animate attributeName="opacity" values="0.4;0.05;0.4" dur="2.5s" repeatCount="indefinite" begin="0.3s"/>
  </circle>
  
  <!-- Data points/monitoring spots -->
  <circle cx="12" cy="10" r="1" fill="#fbbf24" opacity="0.9">
    <animate attributeName="opacity" values="0.9;0.3;0.9" dur="1.5s" repeatCount="indefinite"/>
  </circle>
  <circle cx="20" cy="14" r="1" fill="#f59e0b" opacity="0.8">
    <animate attributeName="opacity" values="0.8;0.2;0.8" dur="1.8s" repeatCount="indefinite" begin="0.2s"/>
  </circle>
  <circle cx="14" cy="22" r="1" fill="#ef4444" opacity="0.9">
    <animate attributeName="opacity" values="0.9;0.3;0.9" dur="1.3s" repeatCount="indefinite" begin="0.5s"/>
  </circle>
  <circle cx="22" cy="20" r="1" fill="#10b981" opacity="0.8">
    <animate attributeName="opacity" values="0.8;0.2;0.8" dur="1.6s" repeatCount="indefinite" begin="0.7s"/>
  </circle>
  
  <!-- Central monitoring pulse -->
  <circle cx="16" cy="16" r="2" fill="#10b981" opacity="0.5">
    <animate attributeName="r" values="1;3;1" dur="1s" repeatCount="indefinite"/>
    <animate attributeName="opacity" values="0.8;0.2;0.8" dur="1s" repeatCount="indefinite"/>
  </circle>
</svg>